
<svg xmlns="http://www.w3.org/2000/svg" viewBox="0 0 120.65 11.64"><defs><linearGradient id="a" x1="44.44" x2="44.44" y1="247.47" y2="242.1" gradientUnits="userSpaceOnUse"><stop offset="0" stop-color="#214478"/><stop offset="1" stop-color="#162d50"/></linearGradient><linearGradient id="c" x1="37.35" x2="37.35" y1="239.64" y2="252.49" gradientUnits="userSpaceOnUse"><stop offset="0" stop-color="#2186bd"/><stop offset="1" stop-color="#132e78"/></linearGradient><linearGradient id="d" x1="159.75" x2="159.75" y1="240.26" y2="253.98" gradientUnits="userSpaceOnUse"><stop offset="0" stop-color="#57cef8"/><stop offset="1" stop-color="#2b93f4"/></linearGradient><linearGradient id="b" x1="-32.94" x2="-32.94" y1="238.9" y2="257.05" gradientUnits="userSpaceOnUse"><stop offset="0" stop-color="#fff"/><stop offset="1" stop-color="#003380"/></linearGradient></defs><path fill="url(#a)" stroke="#00112b" stroke-linejoin="round" stroke-width=".79" d="M-31.76 239.32c-.87 0-1.67.22-2.22.8-.5.53-.75 1.25-.75 2v.88c0 .82.23 1.58.77 2.13a3 3 0 0 0 2.18.78h4.26v.13h-6.07c-.24 0-.55.06-.8.3-.26.25-.33.57-.33.82v1.14c0 .25.07.56.33.81.25.24.56.3.8.3h6.64c.87 0 1.67-.22 2.22-.8.5-.53.75-1.25.75-2v-.96c0-.82-.23-1.58-.77-2.12a2.97 2.97 0 0 0-2.18-.8h-4.26v-.04h5.78c.2 0 .44-.07.66-.22.23.2.5.27.73.27h2.9v5.56c0 .24.08.55.32.8.25.25.57.31.8.31h1.31c.24 0 .56-.06.8-.31.25-.25.32-.56.32-.8v-5.56h2.9c-.02.2-.07.36-.07.6v2.06c0 .63.07 1.2.22 1.71v.02a3.2 3.2 0 0 0 .83 1.35c.39.36.87.6 1.4.74.52.14 1.1.2 1.76.2h3.7c.66 0 1.24-.06 1.76-.2a3.21 3.21 0 0 0 1.42-.74c.07-.07.11-.16.18-.23v.05c0 .25.07.57.33.81.25.24.56.3.8.3h1.29c.24 0 .55-.06.8-.31s.32-.56.32-.8v-1.53h2.6l1.61 2.13c.09.12.2.25.38.36.27.16.54.15.65.15h1.55c.15 0 .37-.02.58-.15.2.1.39.15.55.15h1.23c.24 0 .55-.06.8-.31s.31-.56.31-.8v-3.11l1.15 2.55a4.4 4.4 0 0 0 .35.65c0 .02.02.03.03.05.13.19.29.36.46.5v.01l.02.01c.2.17.44.29.7.36h.01a2.64 2.64 0 0 0 .74.1h.58c.25 0 .5-.03.73-.1a2.24 2.24 0 0 0 1.21-.9c.14-.2.26-.43.37-.68l1.15-2.55v3.1c0 .25.07.56.32.8.24.26.56.32.8.32h1.22c.23 0 .55-.06.8-.3s.33-.56.33-.81v-5.9l2.96 3.88v2.02c0 .25.07.57.33.81.25.24.56.3.8.3h1.3c.23 0 .54-.06.8-.31.24-.25.3-.56.3-.8v-2.01l3.17-4.1c-.07.36-.15.72-.15 1.15v2.06c0 .63.07 1.2.22 1.71v.02c.17.52.43.97.8 1.34h.01l.02.02c.39.35.87.59 1.4.73.52.14 1.1.2 1.76.2h5.4c.25 0 .56-.07.81-.32s.32-.56.32-.8v-.1a1.35 1.35 0 0 0 .2.27l.02.02c.39.35.87.59 1.4.73.52.14 1.1.2 1.76.2h4.93c.24 0 .55-.07.8-.32.16-.16.23-.35.27-.53a3.45 3.45 0 0 0 1.28.65c.52.14 1.1.2 1.77.2h3.7c.66 0 1.24-.06 1.76-.2a3.2 3.2 0 0 0 1.41-.74c.29-.27.49-.6.65-.97a3 3 0 0 0 .64.96l.01.02c.4.35.88.59 1.4.73.53.14 1.11.2 1.77.2h3.45c.66 0 1.24-.06 1.76-.2a3.2 3.2 0 0 0 1.41-.74c.14-.13.24-.28.35-.43v.15c0 .27.07.61.33.88.27.26.6.34.88.34h5.6c.71 0 1.34-.07 1.9-.23a3.69 3.69 0 0 0 1.48-.8c.41-.4.7-.88.88-1.42.18-.54.26-1.14.26-1.79v-1.63c0-.65-.08-1.24-.26-1.77a3.23 3.23 0 0 0-2.36-2.22 6.78 6.78 0 0 0-1.9-.24h-8.55c-.24 0-.55.07-.8.31-.25.25-.32.57-.32.8v4.79c0 .27-.02.48-.05.61-.02.08-.03.09-.04.1l-.08.03c-.1.02-.3.05-.56.05h-3.3a3.05 3.05 0 0 1-.56-.05.34.34 0 0 1-.08-.03c0-.01-.03-.04-.05-.11a3.02 3.02 0 0 1-.05-.6v-4.78c0-.24-.07-.56-.32-.8a1.12 1.12 0 0 0-.8-.32h-1.3a1.16 1.16 0 0 0-.79.3c-.25.25-.33.56-.33.82v.16c-.09-.1-.16-.22-.26-.31a3.15 3.15 0 0 0-1.4-.76 6.55 6.55 0 0 0-1.77-.2h-3.7c-.66 0-1.25.05-1.78.2-.53.14-1.01.39-1.4.75a3.1 3.1 0 0 0-.81 1.33v.02a5.6 5.6 0 0 0-.22 1.7v2.07c0 .24.04.4.07.6H45a3.5 3.5 0 0 1-.56-.04.34.34 0 0 1-.08-.03c0-.01-.03-.04-.05-.11a3.05 3.05 0 0 1-.05-.6v-4.78c0-.24-.06-.56-.31-.8a1.12 1.12 0 0 0-.8-.32h-1.3a1.18 1.18 0 0 0-.72.26 1.13 1.13 0 0 0-.7-.26h-5.4c-.67 0-1.26.06-1.78.21a3.25 3.25 0 0 0-1.17.6c-.02-.08 0-.15-.04-.22v-.01a1 1 0 0 0-.38-.4.93.93 0 0 0-.52-.18h-1.57c-.36 0-.7.17-.94.47l-.03.02-2.54 3.4-2.5-3.37a1.18 1.18 0 0 0-.99-.52h-1.6a.86.86 0 0 0-.61.26c-.3-.16-.62-.26-.97-.26h-1.28c-.22 0-.42.01-.61.05h-.01a1.55 1.55 0 0 0-.65.3 1.6 1.6 0 0 0-.48.49h-.01c-.11.18-.2.37-.3.58l-1.94 4.5-1.95-4.49a5.21 5.21 0 0 0-.31-.58 1.7 1.7 0 0 0-1.15-.8 3.3 3.3 0 0 0-.61-.05h-1.3c-.55 0-1.16.13-1.53.62-.15.2-.23.4-.28.61-.08-.1-.12-.25-.21-.34-.63-.65-1.55-.89-2.6-.89h-6.43a1.24 1.24 0 0 0-.87.34 1.2 1.2 0 0 0-.34.85c-.06-.07-.11-.16-.18-.23a3.15 3.15 0 0 0-1.4-.75 6.55 6.55 0 0 0-1.78-.21h-3.7c-.66 0-1.25.06-1.77.21-.48.13-.9.35-1.27.66a.97.97 0 0 0-.3-.57c-.25-.24-.56-.3-.79-.3h-9.36a1.23 1.23 0 0 0-.7.24 1.17 1.17 0 0 0-.69-.24zm49.25.05c-.2.04.18-.04 0 0zm-17.42 3.3H3.8c.13 0 .2.01.25.02-.01-.01.02-.01.02.19v.5c0 .2-.03.2-.02.2a.92.92 0 0 1-.25.02H.07zm40.65.02v2.7c0 .26.07.45.09.68a1.26 1.26 0 0 0-.38-.06h-5.34c-.25 0-.44-.03-.56-.05a.41.41 0 0 1-.08-.03l-.05-.12a3.02 3.02 0 0 1-.05-.6v-1.7a3.43 3.43 0 0 1 .05-.58l.04-.1.02-.01.05-.02h.03c.1-.03.3-.06.55-.06h5.34c.09 0 .2-.03.3-.05zm-51.18 0h3.56c.26 0 .45.03.54.05l.04.01.06.02.01.01.03.1v.03c.04.1.06.3.06.56v1.8c0 .25-.02.45-.05.57v.01l-.01.01c-.02.09-.03.1-.04.1l-.08.03c-.1.03-.3.05-.56.05h-3.56c-.25 0-.44-.02-.56-.05a.39.39 0 0 1-.08-.03s-.03-.04-.05-.11a2.93 2.93 0 0 1-.05-.59v-1.8c0-.25.02-.45.05-.57.03-.09.06-.12.04-.1l.02-.02s-.03 0 .05-.02h.03c.1-.03.3-.06.55-.06zm64.5 0h3.57c.25 0 .45.03.53.05l.04.01c.1.02.06.02.06.02l.02.01c-.02-.01 0-.01.02.1l.01.03c.03.1.06.3.06.56v1.8c0 .25-.03.46-.06.57v.02c-.02.09-.03.1-.04.1l-.09.03c-.1.03-.3.05-.55.05h-3.56c-.26 0-.45-.02-.57-.05a.5.5 0 0 1-.08-.03l-.04-.11a2.96 2.96 0 0 1-.05-.59v-1.8c0-.25.02-.45.04-.57.03-.09.06-.12.04-.1l.02-.02.06-.02h.02c.1-.03.3-.06.56-.06zm21.78 0h3.24c.3 0 .53.03.67.07.12.03.16.06.19.09l.01.01c.03.03.06.06.09.18.04.14.07.37.07.67v1.32c0 .3-.03.52-.07.66-.03.13-.06.15-.09.18l-.01.01c-.03.03-.07.06-.2.1-.13.03-.36.06-.66.06h-3.24zm-68.96 2.92v1.1l-.53-.65c.2-.12.37-.27.53-.45z" transform="translate(35.88 -238.55)"/><g stroke="url(#b)" stroke-linejoin="round" stroke-width="1.15" transform="translate(17 -108.2) scale(.46113)"><path fill="url(#c)" d="M-14.17 238.17q.57 0 .57.57v2.47q0 .57-.57.57h-13.02q-.76 0-1.07.4-.3.38-.3 1.06v.88q0 1.46 1.34 1.46h9.75q2.26 0 3.4 1.17 1.15 1.14 1.15 3.3v2.08q0 1.9-1.12 3.06-1.12 1.17-3.48 1.17h-14.4q-.6 0-.6-.57v-2.47q0-.57.6-.57h13.64q.76 0 1.07-.4.31-.38.31-1.06v-1.06q0-1.46-1.35-1.46H-28q-2.26 0-3.4-1.14-1.15-1.17-1.15-3.33v-1.9q0-1.9 1.12-3.06 1.12-1.17 3.48-1.17zm23.3 0q.6 0 .6.57v2.55q0 .6-.6.6H.97v13.9q0 .57-.57.57h-2.83q-.58 0-.58-.57v-13.9h-8.16q-.6 0-.6-.6v-2.55q0-.57.6-.57zm16.99 0q1.98 0 3.35.39 1.4.36 2.27 1.2.88.8 1.27 2.1t.39 3.17v4.47q0 1.87-.39 3.2-.39 1.3-1.27 2.13-.86.8-2.27 1.17-1.37.36-3.35.36H18.1q-1.98 0-3.35-.36-1.38-.37-2.26-1.17-.86-.83-1.28-2.13-.39-1.33-.39-3.2v-4.47q0-1.87.4-3.17.4-1.3 1.27-2.1.88-.84 2.26-1.2 1.37-.4 3.35-.4zM14.8 249.2q0 1.02.16 1.72.18.68.57 1.1.39.38 1.04.56.67.16 1.69.16h7.72q1.01 0 1.66-.16.68-.18 1.06-.57.4-.41.55-1.09.18-.7.18-1.72v-3.9q0-1-.18-1.68-.16-.7-.55-1.1-.38-.41-1.06-.57-.65-.18-1.66-.18h-7.72q-1.02 0-1.7.18-.64.16-1.03.57-.4.4-.57 1.1-.16.67-.16 1.69zm35.18-11.03q2.99 0 4.29 1.35 1.3 1.35 1.3 4V245q0 2.24-.91 3.54-.91 1.3-2.96 1.66l4.44 5.51q.13.13.08.4-.05.25-.42.25h-3.35q-.34 0-.47-.08-.13-.07-.26-.26l-4.1-5.4h-8.4v5.17q0 .57-.57.57h-2.8q-.6 0-.6-.57v-16.84q0-.78.77-.78zm-10.76 9.28h9.96q1.32 0 1.87-.57.54-.58.54-1.75v-1.09q0-1.17-.54-1.74-.55-.57-1.87-.57h-9.62q-.34 0-.34.31zm23.58-9.28q.58 0 1 .08.41.07.72.3.31.22.55.6.26.37.52 1l5.4 12.47q.1.23.37.23h.31q.26 0 .36-.23l5.41-12.48q.26-.62.5-.98.25-.4.57-.6.3-.24.7-.31.41-.08.99-.08h2.78q1.35 0 1.82.62.46.6.46 2.08v14.92q0 .57-.6.57h-2.64q-.58 0-.58-.57v-13.57q0-.26-.2-.26H81q-.26 0-.34.21l-5.25 11.65q-.3.7-.65 1.2-.3.46-.7.77-.36.31-.86.44-.46.13-1.11.13h-1.25q-.65 0-1.15-.13-.46-.13-.85-.44-.37-.31-.7-.78-.32-.5-.63-1.2l-5.25-11.64q-.08-.2-.34-.2h-.23q-.2 0-.2.25v13.57q0 .57-.58.57h-2.65q-.6 0-.6-.57v-14.92q0-1.48.47-2.08.47-.62 1.84-.62zm27.07 0q.42 0 .63.31l6.94 9.38 6.99-9.38q.2-.31.62-.31h3.4q.21 0 .3.18.07.16-.06.34l-9.33 12.11v4.99q0 .57-.57.57h-2.81q-.6 0-.6-.57v-4.99l-9.22-12.11q-.13-.18-.08-.34.08-.18.3-.18z"/><path fill="url(#d)" d="M135.37 238.17q.57 0 .57.57v2.55q0 .6-.57.6H123.8q-1.01 0-1.69.18-.65.15-1.04.57-.39.39-.57 1.06-.15.68-.15 1.72v3.69q0 1.04.15 1.74.18.68.57 1.1.4.38 1.04.57.68.15 1.7.15h11.56q.57 0 .57.57v2.55q0 .57-.57.57h-11.72q-1.98 0-3.35-.36-1.38-.37-2.27-1.17-.85-.83-1.27-2.13-.39-1.33-.39-3.2v-4.47q0-1.87.39-3.17.42-1.3 1.27-2.1.89-.84 2.27-1.2 1.37-.4 3.35-.4zm5.89 0q.58 0 .58.57v10.37q0 1.04.15 1.74.18.68.57 1.1.4.38 1.04.57.68.15 1.7.15h10.52q.57 0 .57.57v2.55q0 .57-.57.57h-10.68q-1.98 0-3.36-.36-1.37-.37-2.26-1.17-.85-.83-1.27-2.13-.39-1.33-.39-3.2v-10.76q0-.57.6-.57zm31.52 0q1.98 0 3.35.39 1.4.36 2.27 1.2.88.8 1.27 2.1t.39 3.17v4.47q0 1.87-.4 3.2-.38 1.3-1.26 2.13-.86.8-2.27 1.17-1.37.36-3.35.36h-8.03q-1.98 0-3.35-.36-1.38-.37-2.27-1.17-.85-.83-1.27-2.13-.39-1.33-.39-3.2v-4.47q0-1.87.4-3.17.4-1.3 1.26-2.1.89-.84 2.27-1.2 1.37-.4 3.35-.4zm-11.33 11.04q0 1.02.15 1.72.19.68.58 1.1.39.38 1.04.56.67.16 1.69.16h7.71q1.02 0 1.67-.16.67-.18 1.06-.57.4-.41.55-1.09.18-.7.18-1.72v-3.9q0-1-.18-1.68-.16-.7-.55-1.1-.39-.41-1.06-.57-.65-.18-1.67-.18h-7.71q-1.02 0-1.7.18-.64.16-1.03.57-.4.4-.58 1.1-.15.67-.15 1.69zm24.02-11.04q.58 0 .58.57v10.37q0 1.04.15 1.74.18.68.57 1.1.4.38 1.04.57.68.15 1.7.15h7.2q1 0 1.66-.15.67-.19 1.06-.58.4-.41.55-1.09.15-.7.15-1.74v-10.37q0-.57.58-.57h2.83q.57 0 .57.57v10.76q0 1.87-.39 3.2-.39 1.3-1.27 2.13-.86.8-2.26 1.17-1.38.36-3.36.36h-7.48q-1.98 0-3.36-.36-1.37-.37-2.26-1.17-.85-.83-1.27-2.13-.39-1.33-.39-3.2v-10.76q0-.57.6-.57zm33.78 0q2.1 0 3.61.44 1.5.42 2.47 1.33.96.88 1.4 2.28.47 1.38.47 3.28v3.53q0 1.9-.47 3.3-.44 1.38-1.4 2.3-.96.87-2.47 1.32-1.5.41-3.61.41h-12.17q-.78 0-.78-.78v-16.63q0-.78.78-.78zm-8.97 14.24q0 .34.34.34h8.52q1.15 0 1.93-.2.78-.22 1.25-.68.49-.47.7-1.25.2-.78.2-1.93v-2.85q0-1.15-.2-1.93-.21-.78-.7-1.25-.47-.46-1.25-.67-.78-.2-1.93-.2h-8.52q-.34 0-.34.35z" transform="translate(-6.77)"/></g></svg>
